<?xml version="1.0" encoding="UTF-8" standalone="no"?>
<!-- Created with Inkscape (http://www.inkscape.org/) -->

<svg
   width="150mm"
   height="150mm"
   viewBox="0 0 150 150"
   version="1.1"
   id="svg1"
   xmlns="http://www.w3.org/2000/svg"
   xmlns:svg="http://www.w3.org/2000/svg">
  <defs
     id="defs1" />
  <g
     id="layer1"
     transform="translate(-29.847818,-50.1365)">
    <g
       id="g2"
       style="display:inline"
       transform="matrix(0.26458333,0,0,0.26458333,-197.0797,28.44573)">
      <path
         fill="#000000"
         opacity="1"
         stroke="none"
         d="m 1021.3934,307.611 c -0.1646,18.1202 7.3961,32.46787 19.6929,44.47632 -1.9627,2.29227 -3.9203,1.60172 -5.6363,1.61615 -8.9969,0.0758 -17.9951,-0.006 -26.9918,0.0784 -2.7533,0.0259 -4.7501,-0.75201 -6.1126,-3.33591 -15.66978,-29.71615 -15.76698,-59.42784 2.5326,-87.66935 18.7742,-28.97417 60.7031,-32.2076 86.1659,-7.82366 1.0827,1.03676 2.1072,2.13883 3.2359,3.12207 4.7008,4.09508 6.9086,4.08524 11.7035,0.009 0.6344,-0.53935 1.2359,-1.11731 1.8583,-1.67092 6.6051,-5.87466 6.5688,-5.83955 12.5556,0.4504 3.9037,4.10138 7.9239,8.09225 11.9099,12.11485 1.408,1.42096 2.4008,2.79704 0.5741,4.64951 -8.0328,8.14578 -16.3962,15.74 -28.4245,17.30525 -11.36,1.47832 -20.9217,-2.45769 -29.3208,-9.82593 -3.1257,-2.74217 -5.9963,-5.84212 -9.3811,-8.21013 -12.089,-8.4575 -28.8431,-4.78164 -36.6472,7.761 -5.0542,8.12314 -7.5732,16.95484 -7.7144,26.95302 z"
         id="path5-8-1"
         style="fill:#cc955e;fill-opacity:1" />
      <path
         id="path6-7-8"
         d="m 922.13648,448.9299 c -11.49161,-0.009 -22.48663,0.14636 -33.47369,-0.0817 -7.66471,-0.15906 -13.6436,-5.92069 -14.49405,-13.33109 -0.65823,-5.73551 3.06079,-16.10566 15.62335,-16.11133 15.65488,-0.007 145.61451,0.16324 166.96751,-0.0739 4.8313,-0.33501 11.6525,7.21611 18.3728,13.89782 8.4876,8.43885 16.7076,15.73623 12.6246,15.73112 -37.1342,0.3268 -127.88328,-0.002 -129.86548,-0.0309 z"
         style="fill:#cc955e;fill-opacity:1" />
      <path
         fill="#000000"
         opacity="1"
         stroke="none"
         d="m 1097.8547,330.88011 c -19.9581,-0.0145 -39.4412,-0.1718 -58.9194,0.0716 -4.7103,0.0589 -7.0835,-1.67661 -8.234,-5.99158 -1.5874,-5.95438 -3.1262,-11.89642 -2.8057,-18.13889 0.1894,-3.69191 1.5861,-5.61645 5.8175,-5.57548 20.6452,0.19989 41.2981,-0.15476 61.9386,0.22217 28.3156,0.51707 52.3349,10.85025 71.7545,31.89552 12.682,13.74364 28.5307,22.1562 47.1473,25.05296 0.9801,0.1525 1.9486,0.4105 2.901,0.69187 0.2796,0.0826 0.4852,0.4151 0.7434,0.6499 0.2022,1.83252 -1.3323,2.56247 -2.3672,3.52087 -6.467,5.98831 -13.1035,11.79929 -19.4284,17.93238 -2.4682,2.39331 -4.6406,2.35434 -7.5955,1.2709 -17.5833,-6.44702 -32.0881,-17.38889 -45.0473,-30.59137 -12.5113,-12.74617 -27.2485,-20.5713 -45.9048,-21.01089 z"
         id="path7-8-7"
         style="fill:#cc955e;fill-opacity:1" />
      <path
         style="fill:#cc955e;fill-opacity:1"
         d="m 1340.2128,360.18776 c 17.9814,0.0632 35.9631,0.0168 53.9447,0.0486 9.173,0.0162 15.9167,6.02697 16.0951,14.23349 0.1899,8.73916 -6.5757,15.26175 -16.1701,15.27255 -45.4535,0.0512 -90.907,0.034 -136.3605,0.0133 -1.6101,-7.4e-4 -4.1653,0.20409 -4.795,-0.80076 -0.9298,-1.60605 0.772,-2.38644 1.6907,-3.18841 7.0322,-6.13889 13.9519,-12.4494 19.3728,-20.06076 3.062,-4.29911 5.9758,-5.53568 12.1754,-5.49207"
         id="path16-7-6" />
      <path
         fill="#000000"
         opacity="1"
         stroke="none"
         d="m 1153.3316,435.12541 c 7.7601,5.60513 14.793,8.22404 23.0233,12.11476 2.4395,1.12865 1.1435,2.38979 0.2672,3.24643 -8.6482,8.03726 -16.0998,15.25783 -25.0552,22.93977 -7.1603,6.14218 -16.6122,5.67929 -24.096,-1.11615 -13.915,-12.63498 -27.5028,-25.62976 -41.2611,-38.4379 -11.5618,-10.76345 -23.1923,-21.45343 -34.7356,-32.23657 -1.3888,-1.2973 -6.211,-6.11905 -3.5633,-5.7985 8.0803,-0.0148 10.293,0.0724 16.1724,-0.0656 5.8482,-0.13731 11.635,-0.15708 17.4467,-0.20606 4.7702,-0.0402 8.5129,1.35819 12.0332,4.75513 13.4064,12.9364 27.0598,25.61706 40.6362,38.37704 5.9819,5.62226 5.9071,5.50318 11.9566,0.045 1.9029,-1.71686 4.1592,-5.49701 7.1756,-3.61728 z"
         id="path9-4-0"
         style="fill:#cc955e;fill-opacity:1" />
      <path
         fill="#000000"
         opacity="1"
         stroke="none"
         d="m 957.06431,330.88061 c -23.16071,-0.008 -45.82141,-0.003 -68.48206,-0.0305 -9.85299,-0.012 -16.64538,-6.10061 -16.58181,-14.78334 0.062,-8.46701 6.77882,-14.63774 16.30471,-14.66092 30.15851,-0.0734 60.31766,0.0215 90.47556,-0.13678 4.38067,-0.023 5.70971,1.39533 5.69495,5.77365 -0.0265,7.84854 0.12042,11.50039 2.00299,20.45243 1.41822,4.66802 -16.36624,3.38487 -29.41434,3.38545 z"
         id="path11-9-5"
         style="fill:#cc955e;fill-opacity:1" />
      <path
         fill="#000000"
         opacity="1"
         stroke="none"
         d="m 1235.4278,268.94663 c -10.0981,-2.88468 -18.5478,-0.46218 -25.5321,6.58611 -2.8061,2.83177 -4.9122,3.17482 -7.8858,0.45496 -5.1519,-4.71241 -10.485,-9.22916 -15.8027,-13.7569 -2.1779,-1.85442 -1.9377,-3.36499 -0.071,-5.37497 26.637,-28.67416 72.5206,-23.07974 91.6137,11.11069 3.8622,6.91609 6.3934,14.19642 8.1301,21.87063 0.7824,3.45757 0.046,5.06134 -3.6918,5.02152 -7.3207,-0.0781 -14.6442,-0.0978 -21.9636,0.0317 -2.9004,0.0513 -3.9468,-1.39555 -4.8414,-3.91089 -3.5286,-9.92215 -9.1429,-18.10376 -19.9559,-22.03287 z"
         id="path12-1-6"
         style="fill:#cc955e;fill-opacity:1" />
      <path
         fill="#000000"
         opacity="1"
         stroke="none"
         d="m 1277.1265,349.46748 c -7.5533,14.34942 -19.5831,24.32397 -30.6556,35.09002 -8.5905,8.35282 -17.5508,16.32554 -26.3504,24.46323 -1.458,1.34824 -2.7975,2.99719 -5.0722,2.78549 -10.8171,-1.00659 -21.2487,-3.38833 -30.8042,-8.2864 -0.2723,-2.79178 1.7255,-3.56223 2.9822,-4.72571 16.8567,-15.60675 33.7676,-31.15482 50.6437,-46.74051 3.8007,-3.51007 7.2249,-7.36536 10.1254,-11.66403 0.9421,-1.3962 1.8696,-2.9623 3.7501,-2.97443 9.7597,-0.063 19.52,-0.0293 29.5446,-0.0293 2.935,0.0602 -2.5543,8.12138 -4.1636,12.08168 z"
         id="path13-5-2"
         style="fill:#cc955e;fill-opacity:1" />
    </g>
    <g
       id="g1"
       style="display:inline"
       transform="matrix(0.26458333,0,0,0.26458333,-197.0797,28.44573)">
      <path
         fill="#000000"
         opacity="1"
         stroke="none"
         d="m 1385.0574,330.83924 c -42.8287,0.008 -85.1655,0.4813 -127.487,-0.12076 -34.8113,-0.49523 -65.3432,-12.54872 -90.7873,-36.87347 -19.6272,-18.76373 -38.1129,-38.64317 -57.3276,-57.80397 -12.5198,-12.48473 -27.1861,-21.56724 -44.9767,-24.27785 -27.7169,-4.22297 -51.2271,4.65288 -70.96393,24.06351 -14.62799,14.38622 -23.16977,31.99638 -26.10535,52.22199 -0.77279,5.32431 -2.77639,7.41529 -8.30719,6.93733 -5.95526,-0.51468 -11.99453,-0.27597 -17.98666,-0.0662 -3.77249,0.13205 -4.96646,-1.1241 -4.48154,-4.95808 3.07672,-24.3248 11.26615,-46.5671 26.93637,-65.6418 17.8508,-21.72902 40.3583,-36.15293 68.2177,-41.26657 32.491,-5.96379 61.887,1.58269 87.7156,22.05736 17.6795,14.01476 31.838,31.69059 47.8443,47.45364 14.2024,13.98668 27.3991,29.14935 45.9303,37.99232 14.395,6.86919 29.5875,10.46463 45.3621,10.58995 44.8273,0.35616 89.6587,0.216 134.4884,0.20554 4.4961,-10e-4 8.5725,0.75799 12.0071,3.90445 4.6546,4.26405 6.2943,9.89257 4.3446,15.36151 -2.2251,6.24144 -7.0068,9.93341 -13.4267,10.179 -3.4947,0.1337 -6.9983,0.0355 -10.9965,0.0421 z"
         id="path1-4-2"
         style="fill:#1a606c;fill-opacity:1" />
      <path
         fill="#000000"
         opacity="1"
         stroke="none"
         d="m 1125.9002,501.69438 c 4.1478,3.88388 8.1326,7.43121 11.8912,11.20391 2.42,2.42917 4.1438,2.24625 6.626,-0.12014 16.037,-15.28836 32.2276,-30.41556 48.3527,-45.61161 24.2483,-22.85122 49.1297,-45.03076 72.7403,-68.55776 1.6055,-1.59989 3.4077,-2.73536 5.6907,-2.74939 10.9952,-0.0675 21.9908,-0.0961 32.9861,-0.078 1.109,0.002 4.963,-0.093 3.387,1.88986 -2.6426,2.99494 -5.3444,6.27405 -8.2718,9.33768 -13.4794,14.10675 -28.2745,26.83237 -42.4231,40.23743 -22.0118,20.8551 -44.13,41.59793 -66.1816,62.41098 -12.3581,11.664 -24.6198,23.43054 -37.0271,35.04168 -7.6786,7.1858 -17.6132,6.90772 -26.0418,-0.80481 -9.7074,-8.88262 -19.228,-17.96997 -28.7992,-27.00079 -19.3843,-18.29004 -38.752,-36.59778 -58.1142,-54.91138 -1.9028,-1.7998 -4.0956,-3.36602 -5.2924,-5.70782 -0.6933,-1.83619 2.9205,-1.71994 4.4574,-1.72678 10.3322,-0.0462 20.6652,0.0506 30.997,-0.03 3.3999,-0.0265 5.9787,1.21044 8.44,3.53543 15.3819,14.52975 30.8706,28.94644 46.5828,43.64151 z"
         id="path2-1-1"
         style="fill:#1a606c;fill-opacity:1" />
      <path
         fill="#000000"
         opacity="1"
         stroke="none"
         d="m 1210.9916,212.47135 c -16.3494,4.11975 -29.7717,12.44793 -41.2145,24.10294 -4.4914,4.57466 -4.6299,4.5838 -8.8811,0.0173 -4.6536,-4.99883 -9.3988,-9.91368 -14.1678,-14.80304 -1.6636,-1.70564 -2.1655,-3.10178 -0.1441,-4.99941 11.9786,-11.24468 24.7991,-21.22099 40.1691,-27.51599 44.0268,-18.03167 94.4475,-5.95717 126.6752,30.07205 17.457,19.51621 25.7033,42.61785 30.8225,68.0747 0.6744,3.35351 1.4946,7.2421 0.039,7.42836 -6.5999,0 -13.1818,0.0439 -19.763,-0.01 -11.4196,-0.093 -8.9732,0.94052 -10.8469,-8.87186 -5.8117,-30.43504 -22.0888,-53.18553 -49.7723,-67.32208 -16.6367,-8.49551 -34.3079,-10.07587 -52.9157,-6.17327 z"
         id="path3-7-1"
         style="fill:#1a606c;fill-opacity:1" />
      <path
         fill="#000000"
         opacity="1"
         stroke="none"
         d="m 1057.0644,360.21494 c 13.9765,0.3657 27.4934,-0.89859 40.9333,0.78367 21.9547,2.74798 40.5459,12.29135 56.1552,27.91375 10.5693,10.57813 22.272,19.49942 36.612,24.55967 11.7934,4.16162 24.0664,4.89923 36.3567,5.69513 1.4934,0.0967 2.9903,0.14977 4.4797,0.28689 0.2635,0.0243 0.498,0.36469 0.791,0.59451 0.2836,1.65293 -1.1542,2.25074 -2.0531,3.09922 -7.2673,6.85968 -14.6739,13.57547 -21.8172,20.56085 -2.6789,2.6196 -5.2841,3.22745 -8.9639,2.61731 -26.7556,-4.4361 -48.2941,-18.18833 -67.1057,-36.97644 -13.4192,-13.4025 -29.6129,-19.79172 -48.601,-19.60709 -20.6559,0.20093 -41.3164,-0.0743 -61.9722,0.13422 -4.3966,0.0444 -7.5458,-1.33622 -10.5429,-4.41483 -6.2798,-6.45047 -12.41994,-13.01294 -18.10564,-19.99093 -1.00455,-1.23285 -4.66245,-5.50662 -2.13199,-5.25568 21.74993,0 43.60783,0 65.96573,-2.5e-4 z"
         id="path4-1-0"
         style="fill:#1a606c;fill-opacity:1" />
      <path
         style="fill:#1a606c;fill-opacity:1"
         d="m 1303.8894,353.46288 c -2.4218,-0.0153 2.4956,-7.8262 3.5943,-10.17669 3.1748,-6.79241 5.0486,-5.82084 13.1376,-6.00028 6.5904,-0.1462 13.9194,-0.032 20.3795,-0.0269 3.8277,0.003 -3.525,16.22074 -6.0693,16.2436"
         id="path8-7-0" />
      <path
         fill="#000000"
         opacity="1"
         stroke="none"
         d="m 1336.0644,448.4998 c -23.0252,-5.5e-4 -45.5505,-5.5e-4 -67.8629,-5.5e-4 -1.1821,-0.002 0.4078,-2.86721 1.6787,-4.2074 7.7852,-8.20934 16.5913,-15.38712 24.8102,-23.1618 1.7603,-1.66523 3.7016,-1.95853 5.9281,-1.95658 31.6223,0.0278 63.2448,-0.0113 94.867,0.0563 7.8176,0.0167 14.2692,6.07815 14.7434,13.48584 0.468,7.31201 -5.2697,14.33038 -12.769,15.46524 -1.9619,0.29687 -3.98,0.30197 -5.9725,0.30438 -18.3077,0.0222 -36.6153,0.0143 -55.423,0.0145 z"
         id="path10-4-9"
         style="fill:#1a606c;fill-opacity:1" />
      <path
         fill="#000000"
         opacity="1"
         stroke="none"
         d="m 973.65159,344.95408 c 8.02121,19.26502 21.85544,33.6911 35.91241,47.96304 6.0354,6.12769 11.9534,12.37101 17.9412,18.57895 -0.9114,1.74073 -2.6085,1.16468 -3.9833,1.17093 -10.6588,0.0483 -21.318,-0.0152 -31.97697,0.0151 -2.26215,0.006 -4.28293,-0.39917 -5.92392,-2.08209 -16.44064,-16.86094 -32.5752,-33.95389 -40.66336,-56.77674 -1.80655,-5.09762 -4.0524,-10.10568 -4.85358,-16.03451 5.04334,-1.00424 9.68775,-0.38286 14.27729,-0.51752 2.82879,-0.083 5.68272,-0.0426 8.48324,-0.0757 6.83933,-0.0808 7.49809,0.78555 10.78699,7.7585 z"
         id="path14-5-8"
         style="fill:#1a606c;fill-opacity:1" />
      <path
         fill="#000000"
         opacity="1"
         stroke="none"
         d="m 920.06437,389.75178 c -11.49161,-0.009 -22.48663,0.14636 -33.47369,-0.0817 -7.66471,-0.15906 -13.6436,-5.92069 -14.49405,-13.33109 -0.65823,-5.73551 3.06079,-16.10566 15.62335,-16.11133 15.65488,-0.007 31.31091,0.1005 46.96384,-0.0739 3.79061,-0.0422 6.08398,0.983 7.76837,4.59948 3.5151,7.54709 7.66971,14.77488 12.80923,21.38251 0.59348,0.76306 2.54019,3.64476 0.55799,3.61603 z"
         id="path15-5-5"
         style="fill:#1a606c;fill-opacity:1" />
    </g>
  </g>
</svg>
