<?xml version="1.0" encoding="UTF-8" standalone="no"?>
<svg
   id="svg"
   version="1.1"
   width="165"
   height="165"
   viewBox="0 0 165 165"
   sodipodi:docname="icon.svg"
   inkscape:version="1.4.2 (ebf0e940, 2025-05-08)"
   inkscape:export-filename="icon.png"
   inkscape:export-xdpi="96"
   inkscape:export-ydpi="96"
   xmlns:inkscape="http://www.inkscape.org/namespaces/inkscape"
   xmlns:sodipodi="http://sodipodi.sourceforge.net/DTD/sodipodi-0.dtd"
   xmlns:xlink="http://www.w3.org/1999/xlink"
   xmlns="http://www.w3.org/2000/svg"
   xmlns:svg="http://www.w3.org/2000/svg">
  <defs
     id="defs1">
    <linearGradient
       id="linearGradient3"
       inkscape:collect="always">
      <stop
         style="stop-color:#3f2378;stop-opacity:1;"
         offset="0"
         id="stop3" />
      <stop
         style="stop-color:#15868c;stop-opacity:0.99607843;"
         offset="1"
         id="stop4" />
    </linearGradient>
    <linearGradient
       id="linearGradient1"
       inkscape:collect="always">
      <stop
         style="stop-color:#502395;stop-opacity:1;"
         offset="0"
         id="stop1" />
      <stop
         style="stop-color:#1599a1;stop-opacity:0.99730456;"
         offset="1"
         id="stop2" />
    </linearGradient>
    <linearGradient
       inkscape:collect="always"
       xlink:href="#linearGradient1"
       id="linearGradient2"
       x1="125.84321"
       y1="110.75061"
       x2="274.46939"
       y2="110.75061"
       gradientUnits="userSpaceOnUse" />
    <linearGradient
       inkscape:collect="always"
       xlink:href="#linearGradient3"
       id="linearGradient4"
       x1="125.848"
       y1="110.79171"
       x2="267.67114"
       y2="110.79171"
       gradientUnits="userSpaceOnUse" />
  </defs>
  <sodipodi:namedview
     id="namedview1"
     pagecolor="#ffffff"
     bordercolor="#000000"
     borderopacity="0.25"
     inkscape:showpageshadow="2"
     inkscape:pageopacity="0.0"
     inkscape:pagecheckerboard="0"
     inkscape:deskcolor="#d1d1d1"
     inkscape:zoom="2.9041868"
     inkscape:cx="28.751594"
     inkscape:cy="49.583587"
     inkscape:window-width="2144"
     inkscape:window-height="1027"
     inkscape:window-x="284"
     inkscape:window-y="212"
     inkscape:window-maximized="0"
     inkscape:current-layer="svg" />
  <rect
     style="fill:#c7d6ff;fill-opacity:1;stroke:none;stroke-width:21.3814;stroke-linecap:round;stroke-linejoin:round"
     id="rect4"
     width="165"
     height="165"
     x="0"
     y="0"
     ry="25" />
  <g
     id="svgg"
     transform="translate(-117.65363,-28.250605)">
    <path
       id="path1"
       d="m 163.88209,55.432375 c -11.035,1.062 -21.42825,7.982094 -26.86225,17.925094 L 136.131,75.068 h 3.819 3.82 l 1.014,-1.422 c 5.112,-7.163 14.278,-11.889 23.058,-11.889 5.323,0 12.269,2.141 15.573,4.801 l 0.873,0.703 2.438,-2.571 2.438,-2.571 -1.138,-0.798 c -7.22412,-5.093138 -14.71623,-6.941311 -24.13537,-5.896938 M 228.041,55.446 c -8.918,0.848 -15.62469,4.458062 -23.97991,13.259375 C 191.46009,81.999375 191.721,81.766 188.21,84.124 c -9.009,6.05 -11.486,6.437 -41.107,6.438 h -21.255 l 0.135,2.782 c 0.075,1.531 0.201,3.008 0.28,3.284 l 0.143,0.501 23.267,-0.081 c 0,0 14.87099,0.368536 22.69438,-0.267806 0.92523,-0.07526 2.80256,-0.163939 5.85442,-0.910703 C 189.82232,93.030948 192.959,90.347 206.203,76.271 c 9.72,-10.329 14.076,-13.138 22.009,-14.194 22.535,-3 39,19.833 29.737,41.236 -1.356,3.133 -3.318,5.744 -7.964,10.599 -4.522,4.724 -12.841,13.336 -14.001,14.492 -0.613,0.611 -2.528,2.585 -4.255,4.388 -20.454,21.336 -24.531,25.296 -27.037,26.257 -5.785,2.219 -9.131,1.066 -15.757,-5.429 l -3.774,-3.7 -4.64646,0.0179 c -2.61724,0.0662 -4.62693,0.0559 -4.68223,0.0734 -0.30469,0.0964 11.34569,11.49772 12.74069,12.55472 7.277,5.507 17.674,5.065 24.505,-1.04 0.472,-0.422 3.266,-3.231 6.209,-6.242 2.943,-3.011 7.516,-7.68355 10.162,-10.38755 29.75,-30.404 30.8731,-31.49422 33.0941,-34.81622 9.7116,-15.032789 7.817,-32.954998 -3.703,-45.065998 C 251.2771,57.064232 239.576,54.349 228.041,55.446 m 2.401,15.375 c -1.2385,0.09793 -1.68166,0.168954 -2.47932,0.334 -2.82174,0.641321 -5.36268,1.697 -7.65568,3.469 -1.215,0.938 -2.203,1.935 -9.831,9.913 -5.921,6.194 -9.27653,9.167253 -11.70053,11.047253 0,0 -0.96936,0.754929 -1.41255,1.238018 -0.12692,0.138337 -0.287,0.378751 -0.287,0.378751 l 1.18808,-0.12621 c 4.964,0.332 13.59897,-4.276326 19.848,-11.144812 1.201,-1.25 2.979,-3.101 3.952,-4.113 11.412,-11.865 28.37875,1.476094 20.62275,16.213094 -2.951,5.606996 -9.29686,10.644686 -16.21286,13.000686 -4.593,1.565 -2.00537,1.45712 -50.72237,1.45712 -24.035,0 -43.6986,0.27428 -43.75096,0.21066 -0.097,-0.11786 2.54744,3.97544 4.27844,6.17844 0.358,0.455 82.344,0.394 85.707,-0.065 22.244,-3.029 36.301,-24.315 26.077,-39.488 -3.808,-5.652 -10.90477,-8.886087 -17.621,-8.503 m -6.345,56.531 c -2.01728,1.66253 -7.05009,4.58047 -10.48409,5.61247 -4.888,1.469 -4.038,1.44181 -34.563,1.45181 -15.18,0.005 -27.73801,0.0469 -27.60391,0.19572 0.0914,0.10134 1.472,1.618 3.272,3.383 l 3.272,3.209 23.078,-0.074 c 22.48,-0.072 23.123,-0.086 24.824,-0.525 7.114,-1.835 9.92411,-3.41123 18.30411,-12.43023 0.585,-0.63 1.55239,-1.73172 1.43639,-1.73172 -0.115,0 -1.20106,0.5428 -1.55113,0.91286"
       stroke="none"
       fill="#242323"
       fill-rule="evenodd"
       style="display:inline;fill:url(#linearGradient4)"
       sodipodi:nodetypes="ccccccscccccccccccccccssccccccccccsccscccccccccsccccccsscccccssscccccsc" />
    <path
       id="path2"
       d="m 163.339,48.815 c -11.858,1.058 -24.097,8.595 -30.784,18.956 -1.401,2.169 -3.846,7.054 -3.672,7.335 0.061,0.099 5.85074,-0.05908 7.26301,-0.03586 0.30155,-0.589713 0.90899,-1.69314 0.90899,-1.69314 9.803,-17.939 33.935,-23.777 50.65,-12.253 0.679,0.468 1.15367,0.779387 1.45741,0.998539 0.20871,-0.229224 4.60659,-4.790539 4.48259,-4.990539 -0.265,-0.429 -4.603,-3.119 -6.743,-4.181 -6.969,-3.459 -15.121,-4.89 -23.563,-4.136 m 63.308,0.08 c -1.961,0.228 -4.325,0.758 -6.898,1.548 -4.347,1.334 -7.239,2.722 -11.675,5.603 -2.737,1.777 -6.849,5.676 -12.812,12.148 -7.379,8.01 -10.216,10.472 -14.575,12.65 -6.128,3.063 -6.646,3.111 -33.709,3.152 -15.919,0.024 -20.40548,0.07755 -20.51748,0.284548 -0.51367,2.759876 -0.65956,6.288095 -0.60735,6.288098 l 21.27892,0.0012 c 29.584,-0.001 31.91466,-0.186909 41.08182,-6.44194 3.511,-2.358 3.25009,-2.112906 15.85109,-15.406906 8.552,-9.024 15.188,-12.545 25.137,-13.338 27.623,-2.202 46.856,26.366 34.687,51.524 -2.759,5.705 -1.5629,4.3671 -34.4489,37.9761 -2.646,2.704 -7.2101,7.3899 -10.1531,10.4009 -2.943,3.011 -5.74481,5.81609 -6.21681,6.23809 -4.02403,3.59635 -9.29062,5.22108 -14.42058,4.82975 -3.57843,-0.27298 -7.01215,-1.54245 -10.07661,-3.78584 -1.37678,-1.0432 -12.45325,-12.56367 -12.69587,-12.56321 -6.01367,0.0114 -9.15613,-0.23279 -9.15613,-0.0658 0,0.225 9.014,9.439 14.442,14.762 6.178,6.059 11.241,8.23 19.164,8.216 9.258,-0.016 13.111,-2.123 23.691,-12.959 3.341,-3.42 10.203,-10.437 15.25,-15.592 22.29567,-22.13706 22.55702,-22.40495 26.675,-27.943 2.40807,-3.27208 7.75249,-12.9874 8.475,-23.786 0.29806,-4.454814 -0.887,-11.207 -2.508,-15.892 C 265.38,57.86 246.974,46.537 226.647,48.895 m -29.572,48.304 c 0.318,0.325 9.286,0.189 11.654,-0.177 6.806,-1.051 10.453,-3.009 15.978,-8.577 4.608,-4.643 6.372,-5.393 9.482,-4.033 7.253,3.172 3.769,13.954 -6.111,18.913 -5.843,2.932 -1.839,2.731 -54.345,2.731 -28.316,0 -44.61118,0.14535 -44.74115,0.14679 -0.27809,0.003 0.64042,2.19955 3.02388,6.52573 0.0396,0.0718 19.67227,-0.12652 43.70727,-0.12652 48.717,0 46.198,0.074 50.791,-1.491 6.916,-2.356 13.253,-7.47 16.204,-13.077 8.11878,-15.180397 -9.19973,-28.444387 -20.85358,-16.256917 -0.973,1.012 -2.751,2.863 -3.952,4.113 -6.48,6.753 -12.75414,10.58667 -19.64842,11.176917 m 19.60713,30.50274 C 209.95056,128.3077 182.27,127.824 182.27,127.824 c -22.632,0.037 -37.05297,0.16932 -36.97096,0.26099 4.36862,4.88363 4.6884,4.9673 6.15316,6.525 3.64113,-0.11549 12.4138,-0.17699 27.5938,-0.18199 30.525,-0.01 29.675,0.025 34.563,-1.444 3.393,-1.019 7.68563,-3.41871 10.14347,-5.30571 0.55885,-0.4119 1.27734,-0.91154 1.88462,-1.23801"
       stroke="none"
       fill="#898b8c"
       fill-rule="evenodd"
       style="display:inline;fill:url(#linearGradient2)"
       sodipodi:nodetypes="cccccccccccccccccsccccccscscsscccccscccccccsssscccccccsccccc" />
  </g>
</svg>
